Coordinates
version=1
nRows=22
nColumns=34
inDegrees=no

Units are S.I. units (second, meters, Newtons, ...)
If the header above contains a line with 'inDegrees', this indicates whether rotational values are in degrees (yes) or radians (no).

endheader
time	pelvis_tilt	pelvis_list	pelvis_rotation	pelvis_tx	pelvis_ty	pelvis_tz	hip_flexion_r	hip_adduction_r	hip_rotation_r	knee_angle_r	ankle_angle_r	subtalar_angle_r	mtp_angle_r	hip_flexion_l	hip_adduction_l	hip_rotation_l	knee_angle_l	ankle_angle_l	subtalar_angle_l	mtp_angle_l	lumbar_extension	lumbar_bending	lumbar_rotation	arm_flex_r	arm_add_r	arm_rot_r	elbow_flex_r	pro_sup_r	arm_flex_l	arm_add_l	arm_rot_l	elbow_flex_l	pro_sup_l
3.49	-0.309083	0.0220277	0.0172013	-0.553228	0.565393	-0.621275	1.81734	-0.269745	0.198785	1.60951	0.137209	-0.482448	-0.00241763	1.78994	-0.246251	0.0785202	1.59634	0.0740665	-0.559508	-0.00241763	-0.342742	0.0395259	-0.103145	0.299741	-0.235839	-0.0466951	2.18098	1.7691	0.268297	-0.200243	-0.175258	2.2255	1.73292
3.5	-0.329796	0.0250171	0.0197572	-0.546138	0.567038	-0.620683	1.82877	-0.277791	0.199102	1.61326	0.155774	-0.469702	-0.00241763	1.79819	-0.25053	0.0736954	1.59843	0.0930026	-0.546003	-0.00241763	-0.333747	0.0336836	-0.106877	0.305542	-0.240064	-0.040568	2.18394	1.77077	0.278285	-0.206002	-0.179919	2.22859	1.74549
3.51	-0.350526	0.0279293	0.0209224	-0.539008	0.568465	-0.619969	1.83998	-0.284723	0.197865	1.61645	0.172521	-0.459342	-0.00241763	1.80691	-0.255617	0.0696297	1.60067	0.106857	-0.536021	-0.00241763	-0.322962	0.0262197	-0.106463	0.307742	-0.24485	-0.0388709	2.18804	1.77358	0.28894	-0.210672	-0.179622	2.23095	1.74977
3.52	-0.370567	0.0298941	0.0186961	-0.531936	0.569819	-0.618836	1.84955	-0.287529	0.194221	1.61893	0.18901	-0.450772	-0.00241763	1.81572	-0.264046	0.0675825	1.60342	0.118298	-0.52875	-0.00241763	-0.311667	0.017858	-0.101233	0.308078	-0.249436	-0.0396893	2.19219	1.78102	0.299275	-0.214039	-0.178452	2.23293	1.75346
3.53	-0.388746	0.0330518	0.0142818	-0.524808	0.571473	-0.61757	1.85697	-0.287473	0.191557	1.62119	0.206799	-0.441636	-0.00241763	1.82186	-0.27423	0.064978	1.60637	0.129857	-0.523002	-0.00241763	-0.301738	0.00796277	-0.0953504	0.308549	-0.252187	-0.0393639	2.19591	1.7841	0.306633	-0.217294	-0.179769	2.23587	1.75975
3.54	-0.403301	0.0395502	0.0113939	-0.517634	0.573783	-0.616734	1.86166	-0.288883	0.193411	1.62367	0.226172	-0.431203	-0.00241763	1.82174	-0.280987	0.0589501	1.60836	0.143124	-0.517432	-0.00241763	-0.295483	-0.00425537	-0.0926581	0.309478	-0.252993	-0.0388405	2.19929	1.78344	0.311641	-0.220802	-0.181006	2.23983	1.76477
3.55	-0.414498	0.0475168	0.013542	-0.510662	0.576736	-0.616534	1.86368	-0.29503	0.198859	1.62613	0.245373	-0.421046	-0.00241763	1.81584	-0.27926	0.0506125	1.60762	0.15784	-0.51251	-0.00241763	-0.292701	-0.0162667	-0.0949658	0.310385	-0.252952	-0.0391979	2.20225	1.78637	0.316138	-0.223627	-0.180776	2.24384	1.76951
3.56	-0.423943	0.053388	0.0193751	-0.50391	0.580098	-0.616581	1.86285	-0.303558	0.204164	1.62805	0.263866	-0.411786	-0.00241763	1.80783	-0.270804	0.0442551	1.60439	0.172401	-0.510078	-0.00241763	-0.29094	-0.0246986	-0.0996519	0.31051	-0.252471	-0.0391871	2.20502	1.79111	0.319324	-0.224759	-0.180915	2.24719	1.77671
3.57	-0.431596	0.0562046	0.0230692	-0.497045	0.583734	-0.616277	1.85763	-0.308215	0.206641	1.62909	0.28298	-0.401627	-0.00241763	1.7995	-0.263812	0.0429574	1.60178	0.186172	-0.509367	-0.00241763	-0.288984	-0.0299311	-0.100786	0.309162	-0.250794	-0.0387815	2.2078	1.79159	0.319337	-0.223893	-0.182343	2.2498	1.78474
3.58	-0.436885	0.0574	0.0224782	-0.48993	0.587661	-0.615539	1.84786	-0.307305	0.206737	1.62916	0.302277	-0.391173	-0.00241763	1.79005	-0.261652	0.0454036	1.60106	0.199622	-0.508235	-0.00241763	-0.287154	-0.0342224	-0.0975571	0.306667	-0.246822	-0.0391155	2.20962	1.79217	0.315527	-0.221919	-0.184612	2.25256	1.79161
3.59	-0.440885	0.0580239	0.020794	-0.482783	0.591888	-0.614799	1.83586	-0.304571	0.206219	1.62823	0.31971	-0.384028	-0.00241763	1.77925	-0.260061	0.0484673	1.60016	0.21243	-0.507148	-0.00241763	-0.284819	-0.0378464	-0.0945365	0.303788	-0.240786	-0.0392026	2.20965	1.79721	0.307833	-0.21963	-0.187666	2.25633	1.79758
3.6	-0.444905	0.0578592	0.0195924	-0.475746	0.596417	-0.61428	1.82303	-0.301817	0.204892	1.62587	0.334981	-0.379468	-0.00241763	1.76792	-0.25651	0.0515832	1.59762	0.224371	-0.506483	-0.00241763	-0.28059	-0.0398617	-0.0928785	0.300191	-0.2346	-0.0373691	2.20855	1.80159	0.296489	-0.216219	-0.191706	2.26024	1.80419
3.61	-0.449202	0.0567486	0.0179623	-0.468738	0.601328	-0.613905	1.80912	-0.298228	0.201906	1.62161	0.349137	-0.372483	-0.00241763	1.75631	-0.252248	0.0554868	1.59377	0.236781	-0.504613	-0.00241763	-0.273887	-0.0404434	-0.0904915	0.294709	-0.229434	-0.0344696	2.20692	1.80339	0.281989	-0.211639	-0.195284	2.26337	1.80857
3.62	-0.454024	0.055281	0.0161031	-0.461671	0.606678	-0.613646	1.7945	-0.294044	0.197911	1.6153	0.362131	-0.362231	-0.00241763	1.7443	-0.247716	0.0592866	1.58856	0.250454	-0.501462	-0.00241763	-0.264513	-0.0406747	-0.0877659	0.286996	-0.224355	-0.031952	2.204	1.80773	0.264366	-0.207937	-0.19646	2.26606	1.80844
3.63	-0.459456	0.0542665	0.0146063	-0.454592	0.612446	-0.61345	1.77965	-0.289722	0.193724	1.60696	0.373141	-0.352198	-0.00241763	1.73155	-0.242727	0.0614244	1.58142	0.264167	-0.497687	-0.00241763	-0.252696	-0.0414611	-0.0858358	0.277551	-0.218417	-0.0294142	2.20035	1.80786	0.244521	-0.205554	-0.195757	2.26814	1.80817
3.64	-0.464584	0.0542943	0.0132212	-0.447586	0.618647	-0.613198	1.76419	-0.285013	0.189503	1.59697	0.381989	-0.343369	-0.00241763	1.7171	-0.237771	0.0612382	1.57223	0.27684	-0.491764	-0.00241763	-0.239772	-0.0433068	-0.0835112	0.266275	-0.212258	-0.0274556	2.19743	1.80422	0.224985	-0.202467	-0.193982	2.26905	1.80591
3.65	-0.469005	0.0550124	0.0116618	-0.44063	0.625285	-0.612905	1.74783	-0.280086	0.184899	1.58582	0.389815	-0.333375	-0.00241763	1.70084	-0.233293	0.0591541	1.56134	0.289186	-0.482583	-0.00241763	-0.226322	-0.0458541	-0.0798275	0.252814	-0.207105	-0.0261945	2.19593	1.80054	0.206575	-0.197782	-0.190793	2.26854	1.8013
3.66	-0.473685	0.0552115	0.00986215	-0.433622	0.632278	-0.612658	1.73073	-0.275141	0.179042	1.57336	0.398906	-0.320643	-0.00241763	1.6843	-0.229506	0.05618	1.54915	0.301619	-0.471897	-0.00241763	-0.211139	-0.0478365	-0.075712	0.237755	-0.203246	-0.0239097	2.19509	1.79434	0.18739	-0.192472	-0.186036	2.26817	1.79104
3.67	-0.47885	0.0542429	0.00816708	-0.426534	0.639629	-0.612488	1.71241	-0.270286	0.17153	1.55919	0.410487	-0.305809	-0.00241763	1.66774	-0.225783	0.0530691	1.53552	0.313837	-0.460608	-0.00241763	-0.194068	-0.0482687	-0.0718175	0.221725	-0.200123	-0.0220059	2.19297	1.80256	0.167188	-0.187064	-0.181925	2.26592	1.79395
3.68	-0.483054	0.0524687	0.00737566	-0.419427	0.647481	-0.612434	1.69176	-0.266499	0.162816	1.54352	0.423493	-0.289308	-0.00241763	1.64936	-0.220831	0.0498465	1.52	0.326099	-0.44747	-0.00241763	-0.177281	-0.0472234	-0.0684464	0.20494	-0.197709	-0.0205468	2.19175	1.80598	0.147589	-0.181715	-0.178173	2.26287	1.79738
3.69	-0.484999	0.0503726	0.00760528	-0.412282	0.655902	-0.612501	1.66797	-0.264487	0.153071	1.52672	0.436824	-0.270195	-0.00241763	1.62784	-0.215032	0.0460605	1.50283	0.339205	-0.431029	-0.00241763	-0.162502	-0.0454222	-0.0661727	0.188007	-0.196236	-0.0184409	2.19086	1.80648	0.129035	-0.176767	-0.174814	2.25882	1.80302
3.7	-0.484279	0.0483228	0.00831739	-0.405015	0.664854	-0.612589	1.6406	-0.263523	0.14241	1.50864	0.450495	-0.248416	-0.00241763	1.60292	-0.20989	0.0411823	1.48465	0.353532	-0.410216	-0.00241763	-0.149974	-0.0436848	-0.0648907	0.171359	-0.195312	-0.0154693	2.18927	1.80692	0.111218	-0.172826	-0.170654	2.25392	1.80933
